# xmcd
#
# Track frame offsets:
#	150
#	13245
#	29478
#	44765
#	60432
#	77222
#	95605
#	110992
#	125862
#	140984
#	152441
#
# Disc length: 2210 seconds
#
# Revision: 4
# Processed by: cddbd v1.5.2PL0 Copyright (c) Steve Scherf et al.
# Submitted via: EasyCDDAExtractor 12.0.1.1
#
DISCID=a508a00b
DTITLE=Bellamy Brothers - Greatest Hits Vol 3
DYEAR=1989
DGENRE=Country
TTITLE0=Hillbilly Hell
TTITLE1=Crazy From The Heart
TTITLE2=The Center Of The Universe
TTITLE3=Kids Of The Baby Boom
TTITLE4=Sante Fe
TTITLE5=I'll Give You All My Love Tonight
TTITLE6=You'll Never Be Sorry
TTITLE7=Rebels Without A Clue
TTITLE8=Big Love
TTITLE9=Country Rap
TTITLE10=You're My Favorite Star
EXTD=
EXTT0=
EXTT1=
EXTT2=
EXTT3=
EXTT4=
EXTT5=
EXTT6=
EXTT7=
EXTT8=
EXTT9=
EXTT10=
PLAYORDER=
